<svg viewBox="-896.98926732 -2741.60568638 6857.48004212 4924.71185515" xmlns="http://www.w3.org/2000/svg"><path d="m-896.989267-2741.605686h6857.480042v4924.711855h-6857.480042z" fill="#eadde1"/><g fill="#292929"><g transform="matrix(15.807 0 0 15.807 -629.6503 -3440.6503)"><path d="m389.05179 320.52487c.3501.65393 1.14493.28421.98788-1.52158l-1.34738-1.28305z"/><path d="m391.54758 308.36816c-.65295-2.12482-1.80109-4.57565-3.03842-3.19919 1.29523 2.10498.75433 2.61383 2.29578 4.87979.15729 1.80878-.43231 3.15546-.92798 2.85034.34561.63904-.29642 2.80859.55032 3.78156 1.04254-2.35242 1.08429-5.33295.22388-8.44568.29589-.66784.64773-.01986.89642.13318z"/><path d="m393.64832 131.71754-.16 1.13794c.08846-.31007.13738-.70065.16-1.13794z"/><path d="m333.67883 77.72105c.8331-.0328 1.18146-.16597 1.22342-.28822-.77368.08846-1.40927.17095-1.22342.28822z"/><path d="m314.99185 76.23625c.40128.03379.73843.06162 1.10168.09143-.42013-.12423-.84277-.1928-1.10168-.09143z"/><path d="m393.64832 131.71754.4234-2.92389c-.4393-.20472-.32599 1.49773-.4234 2.92389z"/><path d="m388.29749 284.00809c.06583.61319.1908 1.12204.35403 1.58817-.04794-.5029-.09439-.98889-.14236-1.49176-.07328-.02683-.13614-.04972-.21167-.09641z"/><path d="m394.74057 179.96663.00198.8885c.15305.26137.3389.50685.54761.73842z"/><path d="m394.94754 216.99524c.04944-.83781-1.09448-1.12901-1.59415-1.45003.47086.47307.69571 1.09224.78391 1.82669.21789.01293.47803-.0964.81024-.37666z"/><path d="m392.93399 275.7095.15802 1.04254c-.04123-.27133-.11029-.7275-.15802-1.04254z"/><path d="m394.98804 153.46382c.16995-.06261.31927-.19579.4097-.33791-.14411.00001-.28052.13318-.4097.33791z"/><path d="m348.83868 315.15314c-.02982.08148.01218.13318.00247.20374.21543-.11628.28202-.19678-.00247-.20374z"/><path d="m391.76053 320.82004-.59482.06161c-.0636.21664-.12869.42932-.12869.64102z"/><path d="m280.79272 74.77033c.06659.00994.08945.01292.15182.02187.89967-.1302.39009-.10734-.15182-.02187z"/><path d="m4.37306 122.6199c1.02254-3.55598 1.31361 5.78813 2.44858.43331-.44698.49891-1.78383-4.86684-2.44858-.43331z"/><path d="m388.44754 283.04901c-.01291-.49988-.02286-1.00775-.01166-1.51758-.03705.69171-.03381 1.15683.01166 1.51758z"/><path d="m6.82164 123.05322h.01019l.10746-.55257c-.04871.22858-.07616.35777-.11765.55257z"/><path d="m201.99278 75.45808c.16125.20174.47556.3548.80351.50089-.02706-.11727-.20869-.26038-.80351-.50089z"/><path d="m260.69672 77.08599-1.45248-.15305c.57592.10435 1.04327.14013 1.45248.15305z"/><path d="m171.51286 77.07307c-.78987-.08746-1.0582-.24548-2.13664-.09143.10025.05764.19914.09839.32784.13914.39021-.15703.90911-.22958 1.8088-.04771z"/><path d="m139.78777 77.08002c.16797.08746.39021.15305.58525.23058.31444-.01888.68153-.04175 1.0054-.06162z"/><path d="m252.42348 315.70374c.69519.32199 1.12727.67679 1.46468 1.02863-.48922-.81397 4.17165-1.10417-1.46468-1.02863z"/><path d="m388.94049 283.99219c-.28897-.18585-.43134-.45618-.49295-.94318.02136.36475.04175.71359.06161 1.05548.16996.09241.33097.11231.43134-.1123z"/><path d="m170.22298 86.10014-5.04028-.16895c1.40914.11032 3.24091.16895 5.04028.16895z"/><path d="m24.82523 315.86673 1.15708-.13718c-.44574-.02581-.85632.00696-1.15708.13718z"/><path d="m150.22461 86.10014c-.89967-.4035-1.85352-.63805-2.83853-.7911-.20871.08945-.44711.16299-.58537.29517z"/><path d="m253.89909 316.74429c-.01094-.00497-.01094-.01193-.01094-.01193s0 .00696.01094.01193z"/><path d="m287.09967 314.02612c-4.80325-.03281-2.25604 1.47186-3.27496 2.33554-5.73248.42633-2.65283-1.10815-4.60397-1.8764-3.57959.39755-6.32458 1.77798-8.9938 1.71936-.19901-.24747-.71805-.33789-.1098-.64798-3.78406 1.19559-11.23343.05862-15.64235 1.56033-.32773-.13318-.49319-.2594-.57568-.37268.71407.75333.82364 1.51859.67731 2.0632-2.15292.02585-3.9955.9501-4.80574-.03281 1.31958.02884 1.4294-.36771 2.04732-.6748l-2.25603.42734c-2.03091-1.41324 3.07968-.48895 3.07968-1.53546-4.39925.46014-9.52623 1.62988-12.89735 1.23038-.70464-1.38245 7.88292-.46512 3.38454-1.69452l5.21643.52774c-3.98605-2.18051 3.16911.15305-.49319-2.18051-6.86398-.40051-7.67818.70465-14.52452.30115-1.54195.76825.50935 1.13696-1.03247 1.90518-9.73233 1.38046-7.66068-3.47644-14.81584-1.63486-1.85216.9213-2.57033 2.67047-7.66476 1.74518l1.73698-1.56329c-6.64583-.15405-3.79375 2.24707-10.75388 1.19559 1.23709-.6142 5.22314-.51779 4.21786-.70364-4.50919-1.23434-3.18948.88651-6.65527.88651l-.71817-1.38443c-7.07529.21765-14.86876 1.21747-22.70546 1.46991.43356-.41147 1.77625-.84479-.0569-1.26816-9.88264.69171-21.09731-.16895-30.63037-.98987l-3.64194 1.19461c-.84688-.01392-1.57176-.53967-.65443-.77124-3.71512-.45319-.19244.75732-1.97813 1.22742-2.11365.08347-2.79257-.68677-1.4525-1.04553-6.55638 1.01273-18.67605 2.1825-25.58338.9024l1.34679-.3548c-5.37893-.48499-6.0699 2.44882-11.05874 1.33475l.95657-.2117c-11.67381-.51779-24.57526.57642-33.48232-1.22739-1.69363 1.72131-11.55467-.76727-12.30527 1.63287-6.6662-1.18964-4.75715-1.61798-14.14524-2.41803-2.5066-.11032-3.73685 1.49872-6.83689 1.74918l-.07578-1.25522-4.20843 1.31683-2.23963-1.5007-2.90761.32199c1.15845.07355 2.46187.56351 2.28572.92529-4.54161.56747-11.07092-.8746-11.18334-1.51761l-.9972.09839c-.12932.01691-.41481.03281-.41605.04968l-.10634.04871c-.14697.06558-.31368.13217-.50028.19778-.37331.13116-.82613.26236-1.35858.39355-.09106-.18686-.18212-.41245-.27318-.67581.42574-.16696.61544.07056.85756.09143l.2748-.14212c-.12584.07056-.23989.13318-.29902.16599-.42934-.14908-.07218-.52875.25293-.72552.32524-.27927.61854-.30014.06162-.53467-.28449.19278-.74737.0437-1.00105-.01096.04746-.07153.09193-.0795.13355-.20273.03665-.18884.07553-.38959.11653-.60028.07218-.42239.1333-.88751.18448-1.38544.10237-.9968.16436-2.12582.19268-3.31049.05665-2.3703-.02149-4.96423-.181-7.17056l.86464.84674c.21976-7.9696-.4153-16.8009-.3994-25.74548-.40338 3.2081-1.90222 2.47067-2.04632-.15207l1.32666-1.04849c-.82067-1.69351-.50189 2.73901-1.50455-.73746.15305-3.34128 1.50778-2.24606 1.93886-.32794l-.46002-4.06186c.39654-.23853.60537.71359 1.11012.96204-.8239-1.66666 1.33076-7.01154-.09926-9.41666l.39443-.22858c.01093-8.9416-.44537-12.99649-.5117-20.28036-1.14516-.14212-.89073-2.99046-1.816-5.16103.36474-5.35184 1.26442-11.29303 1.16789-17.74208-.56947-4.53293-.96924-1.32381-1.64903-3.36217 1.04167-.33295.9444-6.77405 1.69264-3.43274-.16895-7.74104-.20684-9.88675-1.05347-19.6761-.42835 1.06241-.61308 2.25702-.96887 1.63785-.17181-1.776.43717-4.04196.93831-3.78654l.10709.46811c-1.56245-10.98793 3.04041-25.36089.86663-34.11069l.10746.48996-1.13286-9.07378c.18075-4.17415.78402 2.50449 1.42877-.58537-1.73898-9.78737.25281-15.4642-.90614-23.52427 3.07594-6.23935-.21653-22.14083 1.74718-30.56266l-.72464.48599c-.71072-2.17553.41443-2.63269.58053-4.23676-.56252.22759-.65097 2.36137-1.04453 1.00974l-.09802-2.4051-.01988-.60326c-.00621-.2425-.01217-.16399-.01789-.26237l-.03068-.34785c-.03615-.47208-.05392-.968-.0559-1.45399.56686-.00199 1.15969.01788 1.72134.05565 1.77674.05466 3.56044.10833 5.34911.16299 3.93425.13815 7.88975.32996 11.84947.53866 7.91919.4194 15.85465.90738 23.66787 1.17771 6.91404.19379 3.92382-3.74779 12.63994-2.0185l-2.47404 1.34467c13.95281-1.61201 28.53013.05566 42.18901-1.31287-.81433.31007-.83731.71358-2.17056.70861 2.88451.97694 10.66853.0477 10.71723-.75035 2.1272.09143.49319.72153 1.80345 1.12701 2.89407.57643 7.26363-1.24727 8.80148-.27529.26138.15901-.81297.31703-1.3428.39256 1.88606-.47307 8.78656.12025 6.9805-1.00676 5.12698.53767 9.80675-.50189 13.89592.16597 2.66647-1.26019 8.77576.60724 9.62251-1.17571-.36711 1.84159 8.98708 1.48579 12.22935.61916-1.08527.55655 2.8183.57643 1.54729 1.34765 3.69896-.02584 7.08896-.36772 6.44395-1.31386 6.81516 2.20335 13.69815-1.77302 17.53525 1.05049 10.98817-.98987 21.1568-1.65872 31.04082-2.09105-.35629 1.83662-10.92593.18287-10.50182 2.11092 9.37729-.75631 14.78603-2.33255 24.08479-1.88929 2.40759.25044-1.36702.79607-2.17999 1.11012 9.36772-.75631 18.11354.16697 26.4489-.83284-.02286.17094-.92255.35779-1.77203.49792 1.64334-.06062 3.82083.27032 3.63525-.5645l-1.60159.2256c-2.62299-1.21149 6.52383-2.53033 6.81778-3.17036-2.78824 2.39217 8.23373.60127 3.80466 3.62454 1.0813-.15802 2.43741-.55357 2.18945-1.11211 1.60431.16299 2.11365.48898.48648 1.12404 5.88431-.45419 3.79373-1.34169 9.12521-1.32281-.01889.4045-1.09473.56053-1.64606 1.03559 2.69879-.78812 5.41147-1.57624 9.91656-1.23436-.27106.24349.25195.56053-1.09222.55457 7.73782-.12224 13.18878-2.098 21.67722-1.33672-2.504 1.75513 2.88736.57742 3.33707 2.09701l4.56473-.45319-1.83191-.73743c3.99847.02583 7.5321-1.08131 10.9693-.58339l-2.97134.62612 7.49283-.28822-4.24097-.57643c4.04568-.78314-.43356-1.92308 4.88846-1.4997-1.08105.15603 3.99973.01888 6.08356.91433l-.01343.00397c1.978-.484 4.01315-.99384 6.96957-.61618.76825.48599-.61792 1.68059-.11801 2.00459 1.95117-1.27013 9.36374-.35282 11.83517-1.70643-.82364.31802-.86713 1.11608-.59604 1.27808l1.63809-1.03161c1.85202.32996 2.12311.48997 1.8222 1.12603 5.5715.18883-1.76953-1.92706 4.8425-1.09721-.51901.08348-.27106.23753-1.35211.39455 3.32068.21666 6.52856.05267 9.66885-.10137 1.57001-.07752 3.12338-.15205 4.66559-.17591.77121-.01192 1.53946-.01093 2.30573.00895.56573.01987 1.10764.05764 1.62766.12125.30164.76526-.58737.85868-1.30219.92229-.24323.01789-.48499.03577-.69891.05168-.28574.02286-.53394.05267-.70935.10137-.35059.0974-.40997.26734.1051.58935l.93546-.03379.47009-.04274.92749-.10832c.7049-.09442 1.41473-.18983 2.12708-.28524.26709 1.55139.58264 2.78475.7988 6.59415.2164 3.21607.33368 6.38544.20422 9.43852l.16898-1.58617c2.15887 1.1797-1.06616 6.34072-.04846 10.64704-.16025-1.05447-1.19882-1.38243-.95831-1.0972-.34686 5.83087.53098 11.92114 1.21075 20.75642l-.55557-1.09423c-.49518 3.43572-.28546 9.04894-.5379 12.76194.55356 1.10118.46338 3.22403 1.27014 1.93402-3.15845 11.4451 1.69348 21.83174-.93796 31.98683-.00595-1.21347-.48523-2.89406-.48798-1.92805l.5116 8.64941c.9404-.68376.56946-1.13397 1.30191-2.95071.55756 1.09521.98987 3.53609.98987 5.67981-.62314-3.88989-1.51062.0338-2.03537 1.71439.28821-.28226.60623.29417.89941.15106-1.67361 4.519 1.89227.7583.76526 6.92708l-.49393-.32697c.25244 2.3087.9054 4.43651.76425 6.92609-1.08826 1.03261-.5076-2.45776-1.40329-2.61578.06259 3.49634 2.06146 6.90024.97693 10.06563-.3031-1.48579-.30807-3.62155-.60922-5.10735-1.27707 3.44763-.95309 3.84715-1.15582 6.4073l.02881-.25145-.57843 5.92032.34613-1.50764c2.8374 4.37688.51852 8.91179 2.37701 14.80626-1.75909-5.72949-1.0177-.94713-2.25079-1.38541-.34189 1.50467-.72577 3.79349-1.07263 3.14154.99484 2.78574-.7829 4.65118.67087 8.58382-.39731.1759-.03876 2.98053-1.03558 2.35143.31204 3.62357.6907-.8557 1.18863-.55157 1.35684 5.5844-1.64456 13.12569.21689 21.15694.76501 6.92609 2.10474 8.20715 2.7706 14.63434-.63507 2.16956-1.44604-1.776-1.44604-1.776-.58438 3.49933-.47705 6.13202-.02261 9.43057-.3461-.66885-.63928.01987-1.08527 1.02563.1041 2.64563 1.4458 1.76904.86041 5.25943-.44202-.59927-1.1506-1.36752-1.59488-2.64362.36551 3.11868 1.1069 6.19858 1.46469 9.42758-.69171.85669-1.0495-1.94794-1.50046-3.08688.31107 3.62854.62613 9.40176 1.7211 10.52283l.39081-2.32758c.05368 1.32181-.9404.67978-1.14017-.29617-.8587-3.10873.37891-4.48422.77817-4.66013l.25443 2.29877c2.32782-2.36139-.37369-9.2348-.23853-13.86313l1.69351 1.92905-1.4053-4.74759c.44052-1.00876 1.38666-1.70047 1.63986.58539.83606-3.31845-.60229-2.93683.33093-5.78815.14536-.31406.22659-.17194.29343.11926l-.50388-3.24191c.3558.63504 1.19559-.53967.95087 1.452.97696-5.81897-1.27014-9.38388.01291-11.57431l.10437.48599c-.57245-8.07397-1.24405-.78015-2.70227-6.83664l3.06702-4.07574-1.24332-.79408c.04474-.83284.13815-2.48064.63507-2.17552-.85074-3.1008-.54065.52773-1.34366-1.27113 1.13199-4.00916-.52972-11.0545 1.45123-11.95891-.94537-1.4381-.72946 3.83524-1.38666-.44524 2.12982-1.22044-.36472-4.94835.61221-8.61066 1.09918 1.12503.51706 4.59453 1.49896.92924-1.85873-2.20932.40625-7.13182.05045-10.22069-1.47885-.1451-.61618-6.71838-1.10889-11.90227.49594.32797.81174-9.75456 1.34665-14.57669l.24823.14212c-1.49475-.93422-1.21249-5.90939-1.52231-9.53096.89618.14212 1.24802.79408 1.64853 2.75594l-.00696-3.40491c-.47903-.80302-.73148-1.86545-.9024-4.07376l1.11707.8557c-.06161-4.53194-1.31558-9.12646-.56946-14.95734-1.04254-.32797-2.90204 4.63727-3.59872-1.52853.56351-.22958 1.52756-.45717 1.75836 1.15683-.07452-.52873-.46835-1.88432-.2276-2.94972l.94791 2.46373c.41666-2.65555-.79211-1.38939-.70364-3.51224.80402.04173.57343-1.57127 1.21149-1.26715.07751.54263-.3327 1.85252-.01691 2.66548.1441-2.39417.6214-5.28824 1.2294-6.24431-.45718.20772-1.08231 0-1.18665-1.75414-.05865-4.53192.96701-1.55139 1.3797-4.19402-.5578-1.09821.02087-3.98929-1.18094-4.06482.0062-1.32678.56674-1.57227.8927-2.08409-.53094-2.34547-.15228-10.95613-1.43039-8.3125l-.08447.60127c-.01538-.1123-.03354-.24449-.05243-.38263v.01889-.01889c-1.19482-7.68837.68079-15.97105.16699-23.5988l.40125.01192c-.45914-4.55379-.2713-10.13422-1.13596-13.38607.00101-1.34666.73471-3.17831 1.21249-2.60287-.15082-1.74022-.33942-2.70822-.40698-3.86903-.03403-.58041-.03751-1.2095.0087-2.00756.08124-.97894.17963-2.16559.30807-3.71001.35059 2.23415.50613 1.88631.5603 1.65872.02731-.10236.02905-.1441.0174.26237-.0087.32399-.02734 1.00478-.06412 2.35342.18436-2.37827.31131-4.0181.43033-5.55359.10287-1.7601.121-3.46255-.07925-5.46713-.99756.09641-2.28635.24448-3.73312.45816 1.50916-.51481.56052-.83881-1.43585-.99583-.9834-.07851-2.19366-.11529-3.35919-.1133-1.34888.00298-1.76108.04373-2.37802.12025.58115.12324.9382.24548 1.70322.36872l2.23886.36871c-.85968.02485-1.69202.04771-2.50473.07156-.58163.00099-1.14938.00199-1.7084.00298-1.09894-.03478-2.16409-.06857-3.23795-.10336l1.16104-1.35461c-9.2554-1.64779-16.69107 2.80363-23.73669.04572-2.44833.94714 5.02686.66687 2.83719 1.77501-4.25714-.18287-8.6929-2.12682-10.02615-2.13081-5.8316-.75035-5.44128 1.97874-11.54398 1.46592.78067.48202 1.51761 1.77203-3.04291 2.2272-4.26135-.17889-5.23679-2.02644-2.54721-2.41405 1.02142-.04074 1.51462.1123 1.47137.27629 1.3765-.17591 3.18256-.38263 1.49576-.90639l-.55283.48301c-2.11368-.49294-7.97485-.44126-6.59839-1.23435-3.2193.46114-1.37646.79309 1.00803 1.04353-5.46417-.69966-8.53714-.02087-14.16129-.49096.89423.26636 1.71786.83384.82764.82887-8.24991-.59829-3.63251.91633-9.22263 1.12801-3.17609-.73643 1.13794-1.75811-4.48895-1.14093-3.43594-.49891-.72748-1.28206.63831-1.67562-5.12698.93124-9.57941-.61221-12.50726-.78315l2.70026-.38958c-1.61499.23156-2.93729.2246-4.28421.22163l1.54196.96701c-1.58517-.16796-2.92786-.17294-2.89804-.57445-1.63412.63308 1.25049 1.60705-1.99191 2.47269-2.11365-.49096-6.43713.52673-7.16736-.75533 6.64856.4353-.73444-1.28802 4.8927-1.49474-1.08527.15305-2.40909.14709-3.99973-.02286-.23853-.14312.22485-.26536.65842-.33891-6.36133-1.1459-2.92389 1.45002-9.51678 1.4202.83731-.72253-1.52829-1.37051-2.60413-1.21646 2.6568.01491 1.27087 1.20553-1.16678 1.7591-4.22705-.56252-4.59427.4184-6.80832.35281l2.52686.26535c-.8562.72153-2.96985.62712-5.91684.85471-.25195-.56252 2.67593-.3866 1.62469-.63506-3.27225 1.27013-7.39371-1.31486-11.9557-.45915-2.11365-.48997-.20473-1.35759-2.06097-1.68954-5.11333.93719-5.53745-.98987-10.91228-.21566 1.54866.97098 1.81961.73345-1.96471 1.68059l8.83527-.68377-5.67012 1.41225c2.66649.01392 5.62689-.61121 7.22424-.44524-2.70151.79209-2.42374.55059-1.14763 1.3566-3.64865-1.45698-7.23369.84874-11.45157-.13516l.12871-2.4051c-6.34097-1.07137-11.26596 1.23435-19.49982.6301l2.64622.41741c-1.10428.95608-5.08363.13317-7.75011.52077.24796-.80402-1.41859-1.09521-2.55667-1.59612.13815.59631-6.02666-.05466-6.77452 1.5504l-3.67586-1.05845c-6.64856-.43331-7.58749 2.28982-13.97865 2.01651 1.92532-.87359-.97955-1.44306 3.30193-2.06818-2.13391-.00796-4.05252-.15504-4.08632.4025-1.24652-.50388-5.91696 1.08229-7.87881.31902-.89967.35281-1.19373 1.1946-3.58913 1.12801-.26151-.16299.00943-.39754.00943-.39754-.00943.39754-3.75038.54065-1.65698 1.43014-6.57266-2.50747-18.37119.18188-24.09436-1.97079-4.65677.26933-10.2674.52773-14.4947.58636.27094-.24051.01354-.40052.81297-.31704-5.8315-.74737-3.58517 2.30671-10.22143 1.47288-3.39-1.29895 3.52404-.70264 1.41051-1.1946-.92005-2.64462-8.00888.36176-12.47472-1.18268l1.0813-.15603c-3.4131-.89844-8.32865 1.00179-13.90548.81296 0 0 .27107-.23355.03255-.39952-3.814 1.34864-11.03439 1.79488-16.39978 2.16956 1.66928-1.03459 2.43752-.54761 1.41859-1.59909-2.40498.14908.70464 1.68854-4.09588 1.98272-1.56083-.56649-5.02399-1.06142-5.48328-2.18348l4.52808-.06062c-2.31963-1.452-5.86132.0497-8.24728-.20274l.30486-.63407c-6.93988.20573-7.03604 1.80482-14.49483 1.69053l.77097.48003c-4.0755 1.58418-3.41708-.89049-7.48314.28722l-1.23025-1.60704c-2.68946.3876-9.42064 1.55338-14.24413 1.85551 2.73282-1.19162 8.37611-1.80084 11.86897-2.50846-2.66648-.01192-9.06025.11826-10.44902.91135 1.07447-.15504 2.42796-.5486 3.48889-.30113-3.27074 1.26317-7.57395 1.88432-12.88654 1.8565.30797-1.01869-1.06627-1.45499-3.18949-1.66569-.81085-.10535-2.92898-.15405-4.8353-.19081-1.98669-.03876-4.0796-.08051-6.10356-.12025-.06125 2.07117-.15902 4.05885-.34623 5.81596-.09355.87756-.20945 1.69947-.3543 2.44585-.07243.37369-.15206.72749-.23976 1.05944-.04795.16796-.09379.32796-.13777.48102-.04795.12423-.09802.19082-.15044.28027 1.15286 9.39778-.49096 18.6435-.3061 29.59267 2.42299-3.88294.06882 3.19621 2.55815 2.52436.1579 2.5502.11715 3.52219-.0436 3.75077l-1.48666 7.72813c-.72464 1.83165-.54873-2.42598-1.10727-2.19144-.19094 5.58342-1.05472 2.3425-1.71624 6.0376.89036-.75731 1.27498 1.94197.93508 5.12425l1.14801-4.48222c1.32454 7.80365-2.08918 6.74521-.77719 14.61049l-.78315-2.48759c.46201 4.036-.0159 14.88876 1.98359 18.84526-.28734.71358-.968 1.65672-1.14789-.11926-.30002 9.64525 2.12782 21.47098.89632 28.96754l-.60811-.73148c.17579 1.79985 1.14304 3.1326.53084 5.38564-.25157-.11629-.60736-.72452-.64327.10832.2097.95309 1.06664 4.7804.71159 7.16463l-.68463-2.03738c-.79706 9.40871 1.66779 14.43954 2.08496 22.32867-1.7919-.01988-2.37404 7.38326-2.66424 11.07837l-.25368-.1292c-.22138 10.95612 1.48505 18.6097 2.18844 28.75487-1.94495 6.29797-.81495 21.33282-1.90507 31.45413.32486-1.54742 1.39622.25244 1.57623 2.05127-.364 2.37531 1.24317 6.56635-.39977 6.18967l.03093-.84674c-.80601.89444-1.10192 2.5621-1.2018 4.48322-.04994.96005-.05093 1.9837-.04211 3.00537.00571 1.71439.0113 3.42578.01652 5.02487.71669.12723 1.43325.18585 2.14981.17691-.35008 1.86047-.60736 3.97437-.79222 6.22345 1.84793.18387 3.95475.29517 6.16717.3558 1.1172.01788 2.24671.03677 3.38404.05466.84564-.00198 1.69699-.00497 2.55057-.00696 2.71058-.04572 5.44812-.21667 8.02777-.35681 5.15941-.27927 9.68699-.43033 12.10302.81299 2.40498-.53769 5.38576-.53171 7.77036-1.06839l-.1287 1.15286c6.66608.29416 9.99371.43927 18.23292.16397l-1.68009.82391c4.64734.07355 5.86814-3.32343 10.15496-3.39099l1.28988 1.72034c8.10777-.02682 16.31443 1.4838 24.32605-.07654-.13143.25143-.36996.74936-1.68282.81894 3.81673.04471 14.76304 1.16476 13.377-1.19659.09479 1.53748 8.36518.15009 12.74418-.52774l-.68153 1.13397c3.69622-1.44901 3.81412-1.84555 8.9749-2.24707 1.22354.1481 1.07173.90839-.55283.61816 4.07562.59433 3.17595-1.07434 8.11734-.47006l-1.84135.72449c4.19341.08746 3.86009-.30112 6.16891-1.14688 2.63666-.45419 7.95459.28723 8.57376 1.31287.565-.62512 2.86165-1.46194 5.33296-1.16577.33331.3876-.56638.62811-1.01894.74536 7.01169.77222 10.42603-1.31882 15.24815-.20471.10025.37567.41457.56351.81433.67679-5.57011-.02682-10.0562-.08945-9.63617-.17194 0 1.04553 4.49962 1.2294.92004 2.67346 3.61212-.78812 9.78773-2.50153 14.17357-2.00955.2128.10135.42003.20074.57991.36176l-.45381.11728c1.0121.10434 1.91849.00696 2.77206-.16898 1.3997.17194 2.28845.29916 3.63251.31406.51891.86563 5.15953.4671 7.40326.50986-.18561-1.14493 2.75183-.96106 0-1.90521.35629.08051-.42412.13617-1.91588.18387-.33742.03378-.73433.05069-.95657.11826.04385-.02881.09689-.0636.15317-.10037-1.47287.01987-3.39409.04672-5.57683.07654 1.77228-.58139 3.62442-1.07037 6.10518-.4353 1.15175-.73544 2.41852-1.49176 3.1326-1.84656 3.07022 1.5961 8.98843 2.45877 9.81221 3.44266 6.85031-.64203 16.13828-.42337 20.44547-2.57306 1.94843-.27628 2.23962.61618 2.96724.9541-1.12453.21567-2.46187.18286-3.07022.49194 3.894-.55157 11.53839-.21466 12.46788-1.71637 4.90871.6778-2.75853 1.38245 3.98618 1.13696l-.9106.45917c13.26854 2.40012 21.57161-3.83328 36.28172-.75235-1.01895-.18884-1.52829-.27631-1.737-.52774 16.77112 1.35858 34.56091-1.27509 51.10962.87955 4.70438.43433 5.21371-.52475 8.08493-1.25421l1.01868 1.22937 4.90884-1.41821c6.96014-1.03857 12.05334 3.01633 20.86548 1.05249l-1.13669-.82788c3.16513.15704 10.02487-.48798 9.49664.46414.32376-.15109 1.03784-.86069 2.27493-.42935l.09613.64301 7.77435-1.10217c6.02667.46512-.9429 2.55319 7.85159 2.67841 3.2695-.24747 9.3096-1.87238 8.08218-2.30273-1.31982-.0318-3.37109-.40051-3.47-1.0455l2.99023-.33493c.54214-1.89526 2.8414-3.83624-4.49814-5.16003l-5.11481 1.15881-1.64755-.91931 4.3046-.05765c-2.44162-.86563-3.9903-.10037-5.7233.42538-.41046-.48898-1.12851-.83087-2.14346-1.01273l-5.02115 1.81079c-.60849-.7424 2.2518-1.47189-1.11783-1.88135-2.35217.84079 2.25601 1.66269-1.63809 2.21527-2.44687-.86166-1.73303-1.56332-4.604-.82788-.40375-.48798.20474-.79904 1.34268-1.0137-2.55664.58536-6.76508.24747-8.08466 1.25522-2.54996-1.06342-8.63077.27628-8.37885-1.51761-.80325.42935-4.50235 1.40826-6.85031 1.48282 4.28967-2.14771-8.78931-.12622-7.65506-2.42896-3.17459 1.93103-11.46796.8577-17.09088 1.92905.3143-.15305.93222-.46411 1.42816-.36572-3.16516-.16-4.08521-.7424-6.11887-1.10715-.40646 1.59512-5.33569 1.95987-7.99246 2.94376-3.87921-1.53946 2.35614-1.87241 1.13794-3.35123.19528 1.29297-6.74048 1.29001-5.42093 2.36734-2.9671-.95212-2.55664-.46216-4.08493-1.78397-.52026 1.99466-2.76263.33691-5.22314 1.56232-4.29388-.98291-1.10565-1.86841-5.82217-1.26117-2.24369-.61125 1.95107-1.31786 1.95107-1.31786zm-112.1767 3.44864c0-.01096 0-.02286 0-.02286.96602-.02686 1.78979-.04971 2.31554-.06461-.48239.01789-1.15025.04374-2.31554.08747zm-9.42746.01789c1.14763.04471 2.57703.05267 4.08916.04471.33058.39557-.02721.80203-.97557.78116.5148-.26337-1.70718-.49195-3.11359-.82587zm19.9401 7.92987c-1.49164.16199-1.99167-.06262-2.19627-.29715.70464-.0199 1.52841-.05865 2.60959-.13715.04335-.04276.1328-.09146.17615-.14014-.14225.21863-.30487.42337-.58947.57444z"/><path d="m188.11836 323.92181c.21541-.02484.33467-.07355.61519-.0835-.30487-.10037-.59482-.18683-.89024-.25739-.18124.12323-.36598.24844-.52835.35876.27095-.00593.55133-.01192.8034-.01787z"/><path d="m393.46246 133.05426.02585-.19878c-.04547.16498-.09018.31705-.16275.41742.05542-.13318.09119-.13318.1369-.21864z"/><path d="m35.32443 315.30319.01354.28824.82378-.25244z"/><path d="m389.53482 184.97461c-.1004.09839-.20474.29417-.29294.68079.07529-.02982.17987-.323.29294-.68079z"/><path d="m389.27841 207.40167-.4075 3.17235c.23157-1.3725.34189-2.37231.4075-3.17235z"/><path d="m388.71091 224.64584c.20078.21864.35184.28026.49023.33791l.00894-.0338z"/><path d="m261.8851 84.74255c-.23181.00597-.46063.02087-.66537.05168-1.56082.22163-.49988.13418.66537-.05168z"/><path d="m343.47614 82.06911c-.86588.20772-1.71957.41145-2.62323.54066 1.45248.08746 2.58126.11032 2.62323-.54066z"/><path d="m170.7758 86.12002c.00943-.00695 0-.00993.00943-.01987-.19504 0-.3671 0-.56226 0z"/><path d="m337.05914 82.58989c1.45251.22759 2.6665.17889 3.79376.01988-1.19088-.07653-2.5932-.1938-3.79376-.01988z"/><path d="m388.19238 299.38382-.04797.83087c.07556-.01392.13718.03476.18387.09839z"/><path d="m388.32828 300.31308.13516.92328c0-.42438-.00894-.79111-.13516-.92328z"/><path d="m388.75165 303.17734-.28821-1.94098c-.00272.67184-.03876 1.5007.28821 1.94098z"/><path d="m388.72086 276.55624-.41544-.26138c.08646.14212.21991.23456.41544.26138z"/><path d="m388.60059 269.61923c-.09439 1.65475-.88525 4.15128-.62512 6.45996l.32996.21567c-.61692-1.08527.99508-5.10336.29516-6.67563z"/><path d="m393.72983 240.6646-.3317 5.81299c.44202-1.01669 1.03632-2.35242 1.14267.2912 1.31882-7.32761-.98889 1.51263-.81097-6.10419z"/><path d="m394.37109 222.64026c.20547 3.12366.64178-.03577.89224.12921-.4035-1.98074-.50564-2.46077-.89224-.12921z"/><path d="m394.37506 92.3872 1.04132.31405c-.14908-2.40808-.4035-.02286-1.04132-.31405z"/><path d="m378.89993 83.11563 2.34275.647 1.11511-.95409z"/><path d="m364.19107 75.69859 1.05148-.14908-4.01587.37766z"/><path d="m145.43094 76.06829.72762 1.28305c1.62716-.23057 1.96867-1.67164-.72762-1.28305z"/><path d="m50.99137 77.37421c-1.02838-.64103-3.68542-1.05347-5.32203-.42338 2.1231.08845 4.24086.58835 5.32203.42338z"/><path d="m6.11439 325.58749-2.33491.26438-.16485-1.17176.07292 1.26416 5.35793-.28521z"/></g><g transform="matrix(15.807 0 0 15.807 -629.6503 -3440.6503)"><path d="m36.20585 334.77557c.25902.57843.60413.18188.28983-1.47287l-.83508-1.08826z"/><path d="m35.84931 323.39011c-.60152-1.91315-1.49076-4.09265-1.92309-2.73605.91682 1.84955.71569 2.35739 1.7755 4.33813.31467 1.65674.19926 2.93979-.08609 2.6933.2548.56552.22113 2.61084.76774 3.44864.20796-2.2421-.16162-4.99405-.99521-7.80264.05901-.63706.31791-.06461.46115.05862z"/><path d="m13.75406 160.34917.06982 1.06142c.00311-.29319-.02385-.65594-.06982-1.06142z"/><path d="m64.21222 110.09648c-.76613.12523-1.07782.23654-1.10801.30312.70724-.14509 1.2874-.26933 1.10801-.30312z"/><path d="m81.54807 108.38409c-.37244.03577-.68526.06659-1.02217.09839.39605.00696.79061-.01391 1.02217-.09839z"/><path d="m13.75406 160.34917-.17343-2.72612c-.2441-.15703.03492 1.4053.17343 2.72612z"/><path d="m31.05004 301.15585c.11292.56052.2415 1.02167.38338 1.44006-.08969-.46112-.17641-.90637-.26598-1.36554-.03976-.01986-.0738-.03677-.1174-.07452z"/><path d="m20.61382 204.76401.1174.81992c.10995.23058.23393.44325.36772.64203z"/><path d="m25.56552 238.89456c-.0851-.77618-.68948-.96402-.97894-1.2254.29505.4035.48736.95807.62724 1.62891.10957-.00199.22399-.12224.3517-.40351z"/><path d="m32.25843 293.17828.21467.9491c-.05591-.24747-.1497-.6619-.21467-.9491z"/><path d="m17.26531 180.30753c.07578-.06958.13243-.20175.15852-.3399-.07143.00994-.1215.14211-.15852.3399z"/><path d="m77.50363 331.6221c.02186-.04373-.02062-.0636-.01678-.10037-.19044.08645-.24609.13418.01678.10037z"/><path d="m37.52604 334.43866.54413-.10834c.04348-.11526.08845-.22958.07367-.33392z"/><path d="m113.18682 104.63035c-.062.00397-.08336.00597-.1415.00894-.82042.18287-.3522.10435.1415-.00894z"/><path d="m366.51343 105.60034c.0405-3.35124 1.40854 5.24451 1.26913.22758-.15603.49097-1.52057-4.36197-1.26913-.22758z"/><path d="m30.99886 300.26138c-.06746-.46112-.13591-.92923-.20461-1.39832.07218.63905.13479 1.06937.20461 1.39832z"/><path d="m367.78256 105.82793.00497-.00099-.01913-.5168c.00571.21466.00894.33493.01416.51779z"/><path d="m185.80133 93.97039c-.16286-.07851-.4635-.1133-.77606-.14311.03317.05466.21069.10137.77606.14311z"/><path d="m131.5549 100.85275 1.35001-.1143c-.53829.02386-.97185.0666-1.35001.1143z"/><path d="m213.79391 89.17907c.73457-.06062.99298-.01689 1.97676-.23454-.09653-.01591-.19069-.02287-.31219-.02584-.34871.1282-.82216.23256-1.66457.26038z"/><path d="m243.04782 85.02083c-.16225-.01093-.37071-.02484-.55606-.03777-.28847.05069-.62538.11032-.92279.162z"/><path d="m166.37108 318.72302c-.66364-.06857-1.08713-.18784-1.42293-.31705.50823.33793-3.76915 1.09226 1.42293.31705z"/><path d="m31.36633 301.09622c-.16734-.15106-.27343-.39059-.36747-.83484.05814.33395.11404.65494.16858.96899.09628.07258.17851.08051.19889-.13415z"/><path d="m214.3486 84.5408 4.65964-.57642c-1.30714.13019-3.00041.34089-4.65964.57642z"/><path d="m376.23221 288.8342-1.05719.21964c.41269-.04572.78912-.1153 1.05719-.21964z"/><path d="m232.78949 81.92203c.85806.08249 1.75401.07355 2.67307.01987.18622-.07156.40089-.13914.51903-.22262z"/><path d="m164.93735 318.401c.0103.00101.0108.00497.0108.00497s-.0005-.00396-.0108-.00497z"/><path d="m134.51357 324.09473c4.4313-.61319 1.97676-1.02365 2.85556-1.58517 5.2562-.96204 2.52412.20078 4.37726.32599 3.27298-.66586 5.70715-1.7084 8.17262-2.02942.201.09641.68588.07355.14671.3071 3.40541-1.08728 10.35448-1.5007 14.31445-2.82153.31169.02286.47295.0636.55717.10931-.71135-.27927-.86639-.64398-.76973-.93222 1.98346-.29517 3.61758-.99384 4.4339-.61319-1.21895.15802-1.29237.36871-1.84047.60129l2.05017-.50687c1.97215.4343-2.80537.646-2.73183 1.16379 4.02432-.80402 8.66978-2.05429 11.80637-2.29776.74687.59134-7.23618 1.26218-3.00179 1.28204l-4.84735.42139c3.82904.55756-2.93307.3399.60811 1.01471 6.35762-.70065 7.0307-1.35361 13.37228-2.05127 1.36778-.58142-.54971-.49594.81805-1.07834 8.87726-1.95786 7.30847.71756 13.7769-1.13098 1.6432-.69867 2.18236-1.65872 6.9451-1.86743l-1.49176 1.00079c6.13898-.79407 3.34019-1.60904 9.83221-1.9996-1.09744.46609-4.77988.94016-3.83983.90042 4.24471.02087 2.87878-.85669 6.07462-1.30991l.75954.59134c6.50893-1.03458 13.62509-2.5502 20.83394-3.70206-.37096.26038-1.57872.65097.14162.62015 9.06435-1.63586 19.46591-2.67938 28.31433-3.52118l3.27423-1.06836c.78189-.10437 1.48727.06161.65768.29614 3.45782-.26236.12421-.40051 1.73798-.86664 1.94321-.31802 2.62326-.02582 1.41275.327 5.97449-1.35959 17.06799-3.52615 23.5275-3.79648l-1.21698.35181c4.99408-.46411 5.4249-2.00757 10.10367-2.10892l-.86737.22955c10.80109-1.27209 22.62085-3.5033 30.96118-3.77759 1.44058-1.07333 10.70868-1.13297 11.23218-2.42001 6.23041-.28323 4.50012.17792 13.21338-.65494 2.31915-.27332 3.34058-1.23135 6.18146-1.76108l.15826.61121 3.78806-1.20355 2.17078.45023 2.65854-.54065c-1.07361.11526-2.30994.04373-2.17279-.15802 4.14807-.87659 10.27014-1.0177 10.41895-.71359l4.91656-.96701 2.45825-.483 3.75797-.66788c-.08621.14014-.82611.33096-1.85648.55161-.48102.10037-1.01474.21268-1.55835.32697-.33792.08548-.68204.17294-1.00552.25443.28748-.07355.54587-.14014.77817-.19977.23605-.05862.39383-.09937.78864-.16995.65469-.12222 1.14389-.20175 1.5253-.25244.76053-.10135 1.09146-.08743 1.32651-.0477.46414.07953.53793.26437 2.92615-.16199-.12152-.62213-.28674-1.4679-.49966-2.55914.01242 1.0972-.4917-.80502-.647-.99582-.03006-.88751-.21341-2.68536-.2554-3.34528-.08002-.92627-.19705-1.97079-.33817-3.06601-.2825-2.18945-.66089-4.57565-1.02887-6.59912l.53891.72052c-.93472-7.36438-2.40585-15.4632-3.5694-23.71309.2204 2.9865-.61816 2.41306-1.03284.00398l.51929-1.06044c-.62811-1.50368.11029 2.56213-.84131-.57344-.36176-3.09184.45221-2.17751.91684-.43929l-.75955-3.713c.16498-.24747.39307.6162.67532.80899-.62613-1.47884-.2594-6.55936-1.28232-8.67624l.16522-.23853c-1.16553-8.24593-1.92258-11.95296-2.90921-18.66537-.58563-.05067-.83261-2.69431-1.57501-4.6313-.52026-4.96027-.85297-10.50194-1.74542-16.44214-.87558-4.13936-.6532-1.15286-1.25647-2.98451.47183-.37965-.41989-6.3129.38809-3.28465-1.0972-7.12585-1.39709-9.10161-3.0983-18.06906-.07281 1.00975-.00797 2.12384-.26511 1.57823-.31778-1.62593-.31284-3.75772-.03156-3.55797l.11453.42438c-2.21255-10.02191-1.8165-23.5988-4.03848-31.51477l.11752.44426-1.74918-8.28667c-.45715-3.86208.71606 2.25304.63062-.64103-2.14273-8.90285-1.90024-14.27755-3.52963-21.62901.70563-5.97002-3.0069-20.40062-3.13757-28.30466l-.29517.49892c-.63681-1.95688-.13965-2.45679-.26733-3.94755-.24872.24945-.01294 2.22323-.38489 1.00378-.23679-1.46989-.47455-2.94774-.71432-4.43652-.32944-2.25404-.66113-4.52398-.99631-6.81578-2.55145.35381-5.11557.70861-7.68964 1.0644-1.80579.22958-3.61856.45916-5.43655.68973-3.63995.42735-7.30029.8557-10.96457 1.28504-7.33035.84277-14.67657 1.68655-21.90729 2.5174-6.38916.80899-3.35471 2.36932-11.51367 2.65456l2.18695-.98987c-12.75275 2.62573-26.31226 3.70902-38.81107 6.17474.72925-.25939.72202-.46214 1.95166-.63506-2.72861-.10535-9.84103 1.37448-9.82986 1.775-1.9678.23355-.50534-.29219-1.74219-.32101-2.70923.09341-6.61006 1.56828-8.0966 1.28901-.25218-.04472.72749-.26337 1.21051-.3707-1.70569.48103-8.1105 1.09124-6.36606 1.41325-4.76549.4045-9.00771 1.53251-12.8253 1.73724-2.37007.97298-8.13486.84875-8.79042 1.84259.20908-.96005-8.39163.44126-11.3205 1.29498.96167-.41741-2.63914.08348-1.52144-.46413-3.40901.49693-6.51093 1.11012-5.84976 1.49375-6.43924-.19778-12.50653 2.67145-16.24338 1.77699-10.06291 1.92905-19.39249 3.59175-28.47633 5.1004.19951-.95608 10.06216-1.52157 9.53555-2.421-8.59377 1.60307-13.47055 3.09184-22.07623 4.08966-2.23776.19181 1.20467-.57245 1.93228-.83482-8.58507 1.60108-16.71483 2.28981-24.33064 3.87598.00919-.08746.82562-.29815 1.59909-.47803-1.51114.24448-3.54218.36672-3.31236.75532l1.46095-.32201c2.50398.25642-5.83796 2.10695-6.06406 2.46275 2.40311-1.5494-7.6347.78017-3.76306-1.29597-.98589.21964-2.20869.59333-1.94085.83781-1.49077.1292-1.98347.03379-.52748-.49295-5.39421.99484-3.40404 1.16081-8.3217 1.84954-.01093-.20274.97012-.42039 1.4453-.72849-2.43343.74439-4.87927 1.48977-9.05751 1.91016.2328-.15603-.27182-.24448.968-.41741-7.1266 1.07335-12.01395 2.76587-19.89487 3.50031 2.18546-1.19659-2.703.09243-3.22465-.60127l-4.17737.82291 1.74109.12522c-3.68877.50984-6.86932 1.52158-10.0741 1.72531l2.69593-.69967-6.88883 1.12404 3.95115-.27032c-3.6756.91831.53494.89545-4.40235 1.38343.98602-.21964-3.68952.51382-5.67397.34387l.01217-.00397c-1.79004.49891-3.63076 1.01769-6.38358 1.21745-.74252-.13914.45158-.91235-.03217-1.00676-1.70979.88352-8.60966 1.40032-10.79338 2.39417.73718-.26536.72116-.66587.4599-.71059l-1.43797.7255c-1.73115.07851-1.99228.03478-1.7596-.31902-5.15084.63606 1.76718.72253-4.38819 1.17671.4727-.10932.23318-.15305 1.2192-.3717-6.15499.65494-11.78561 2.00458-17.44865 2.55219-1.76792-.52177 4.89008-.88352 2.89904-1.25224-1.76047.30511-3.54852.6142-5.34998.92626-2.25068.4035-4.51776.80899-6.78261 1.21448.49332 2.79966.98589 5.59435 1.47089 8.3463.39393 2.30671.74302 4.5836 1.00714 6.80484l-.12425-1.47489c1.22317.9362.30275 5.92232 1.37039 9.82117-.2174-.96104-.77445-1.19063-.61805-.94514.59196 5.40253 1.82407 10.95612 3.31782 19.05594l-.41853-.97098c.20498 3.20316 1.04391 8.36517 1.40517 11.80586.41828.97694.65171 2.94078.88216 1.6955-.06472 10.77524 3.69747 20.01202 3.7248 29.56087-.162-1.11908-.61917-2.63469-.49406-1.74321l1.38616 7.93982c.3758-.69669.1333-1.08627.2579-2.81258.41953.96999.95322 3.19122 1.23398 5.16798-.81806-3.54306-.74339.13715-.78315 1.72333.10572-.28027.33853.22858.46499.07652-.23666 4.28445 1.03608.56549 1.28603 6.33276l-.28722-.26634c.42723 2.11191 1.02913 4.02704 1.28529 6.33376-.40338 1.02863-.5732-2.23119-1.0372-2.31367.48897 3.22006 1.9242 6.21748 1.80184 9.21294-.34462-1.34865-.62687-3.31845-.97049-4.66609-.18076 3.26775.03205 3.6136.26709 5.98889l-.01876-.23454.4891 5.50092-.02621-1.41522c1.97775 3.83623 1.42381 8.1813 3.11582 13.48643-1.62121-5.16002-.62786-.80202-1.29572-1.12006.02783 1.41225.13752 3.54901-.11951 2.97258.85731 2.49953.22163 4.3441 1.45623 7.86827-.17355.18982.3712 2.75095-.20461 2.24112.6291 3.31943.22983-.83783.51618-.59134 1.40294 5.05267.90489 12.21829 2.87829 19.49323 1.28578 6.33377 2.11664 7.42004 3.28813 13.29962-.03031 2.04532-.9485-1.53549-.9485-1.53549.16895 3.26776.56699 5.68774 1.22379 8.69711-.25877-.59134-.31368.0636-.40288 1.02167.39816 2.43292.94751 1.53052 1.11484 4.79031-.29728-.52176-.74874-1.18066-1.13571-2.32559.58935 2.85034 1.3597 5.63809 1.95961 8.58978-.2302.83881-.77458-1.72232-1.1469-2.74002.6291 3.32343 1.5412 8.62457 2.23006 9.58167l-.11143-2.17453c.19976 1.21545-.37642.6937-.60314-.19183-.83222-2.80661-.39977-4.1622-.22511-4.35303l.4271 2.10297c.8429-2.34149-1.39449-8.48941-1.93377-12.76691l1.09099 1.65973-1.31746-4.27948c.08584-.96106.46375-1.6647.88837.42535-.02062-3.11868-.68264-2.66647-.59419-5.36078.03081-.30014.08969-.17493.16088.08945l-.67407-2.95471c.25939.56055.52127-.58139.66103 1.27213-.27852-5.43433-1.85774-8.56393-1.50952-10.67389l.11529.44128c-1.34069-7.40512-.71805-.63208-2.23304-6.11511l.9844-3.97339-.71929-.64502c-.08709-.77121-.25666-2.29675.02932-2.05127-.82713-2.79868-.1984.52573-.8316-1.07733.03528-3.77661-1.71003-10.1561-.84775-11.12906-.65643-1.26019.141 3.58679-.74476-.31306.89446-1.27609-.82862-4.5369-.82464-7.98354.69147.96005.85769 4.20097.86377.75233-1.20951-1.90718-.73296-6.60507-1.31374-9.42958-.7511-.02882-1.18478-6.15089-2.10757-10.8965.28834.26735-.87582-9.05191-1.24255-13.53613l.14162.1133c-.86228-.75533-1.37424-5.36278-2.00185-8.68121.46239.06857.72178.645 1.17708 2.42596l-.44934-3.13956c-.3425-.70761-.60649-1.66866-.98042-3.69312l.66513.7106c-.62401-4.17514-1.84656-8.32344-2.24087-13.75281-.55904-.22957-.82924 4.48026-1.9816-1.15683.24896-.25044.69631-.52773 1.02192.94316-.10609-.48201-.47866-1.70444-.49903-2.70326l.79197 2.20435c-.14162-2.47765-.57407-1.22441-.80837-3.18924.4035-.01689.07814-1.48877.43381-1.25323.10945.49493.07789 1.73128.34076 2.45877-.24225-2.21727-.38499-4.91953-.2092-5.84479-.19902.22461-.53593.07652-.81706-1.53351-.62264-4.17413.27542-1.49773.13355-3.96443-.41978-.97298-.51208-3.68021-1.11696-3.6653-.17069-1.22342.07466-1.48877.16908-1.98471-.56997-2.12483-1.51027-10.09148-1.79687-7.56413l.03714.56053c-.02249-.10237-.0487-.22362-.07628-.34984.00249.01788 0 0 .00249.01788l-.00249-.01788c-1.59822-7.00461-1.75463-14.77448-3.00787-21.77213l.20026-.01689c-.82377-4.16718-1.46169-9.32622-2.31565-12.26402-.17579-1.2423-.05255-2.98252.25952-2.4856-.3184-1.59115-.49605-2.47765-.70836-3.53908-.0892-.50785-.18486-1.16876-.2507-1.79588-.05243-.53369-.09528-1.1777-.11454-1.90221.68463 2.32658.2256-.62314.58736 2.30869-.04845-.45319-.04249-.53369-.05739-.76327-.00745-.18684-.01441-.36076-.02087-.52574-.00696-.30213-.01292-.56749-.01863-.81496.52748-.02782.93856-.06261 1.4161-.16199.36511-.0805.75718-.16696 1.1987-.26436.55046-.13715 1.1623-.29021 1.86333-.46611-1.45188.72649 3.23086.19579 5.19196-.23753l-2.97408.04969c2.21826-.39058 4.17377-.62214 6.16021-.86066l-.97546.8229c8.65029-.39654 15.19399-3.57386 21.88467-3.1316 2.19105-.78911-4.68212.32896-2.74102-.50686 3.93848-.4671 8.16554-.08547 9.39529-.2584 5.43011-.39157 4.8784-1.69152 10.54169-2.23714-.75358-.13615-1.52393-.67879 2.64946-1.5007 3.94195-.47009 4.97132.31703 2.51865.86066-.93918.15405-1.4048.14311-1.37635.05665-1.25696.26735-2.90786.60625-1.3156.64401l.4758-.31107c1.98371-.0328 7.38487-.82588 6.17127-.25343 2.93618-.64997 1.2136-.57245-1.00291-.38461 5.08798-.36871 7.87385-1.10814 13.09313-1.61201-.84327-.01392-1.64282-.18684-.82166-.30113 7.64961-.78414 3.28515-.92924 8.42518-1.76705 2.98042-.05069-.92577 1.01968 4.21948-.02286 3.20353-.20275.76104.53965-.4707.91334 4.66224-1.13298 8.87626-.95111 11.5882-1.25025l-2.46262.54661c1.47288-.32597 2.69282-.49593 3.93488-.67084l-1.48977-.27728c1.47362-.12423 2.71207-.29716 2.71281-.09442 1.46232-.52773-1.26615-.63208 1.66283-1.48479 1.98346-.03379 5.8987-1.10416 6.66222-.5655-6.1612.65594.76775.54164-4.40633 1.38045.98999-.21765 2.21105-.3876 3.68977-.51183.22995.03976-.18871.161-.58338.25343 5.94641-.26536 2.59418-1.10018 8.67575-1.94893-.72128.46711 1.50567.47804 2.48684.26138-2.45107.3399-1.25658-.43034.9521-1.02366 3.93761-.27529 4.20718-.80899 6.25339-1.06639l-2.34883.19976c.73892-.47009 2.69456-.69967 5.39595-1.19858.27194.24548-2.44026.54165-1.45337.52773 2.92799-1.05745 6.91045-.31803 11.05687-1.33871 1.98347-.03478.28412.645 2.01912.56649 4.64932-1.13397 5.17581-.23554 10.0777-1.3228-1.49635-.27728-1.72954-.12424 1.69351-1.08926l-8.0992 1.49574 5.12935-1.44207c-2.45976.34288-5.14575 1.03957-6.63043 1.16678 2.43567-.74538 2.1964-.59035.96291-.82191 3.46703.24349 6.61079-1.36752 10.56927-1.43312l.05045 1.20851c5.92242-.30113 10.3018-2.08707 17.93675-2.86624l-2.46933.14014c.95099-.61817 4.67827-.73247 7.10983-1.27312-.17218.43034 1.38504.35679 2.46982.45518-.16945-.27728 5.56105-.76228 6.13785-1.65475l3.46405.04274c6.16119-.65594 6.83553-2.12682 12.74814-2.82848-1.714.68376 1.00465.58537-2.89941 1.45598 1.96831-.2753 3.74779-.45419 3.73984-.73445 1.18491.08547 5.38005-1.31088 7.24275-1.18963.80476-.29318 1.01671-.74837 3.23036-1.02863.25256.04671.01913.19778.01913.19778-.01913-.19778 3.4203-.7583 1.42741-.92527 6.23711.38065 16.92775-2.49554 22.35637-2.1795 4.27527-.74339 9.43082-1.60605 13.32471-2.18844-.23306.15405.01564.19976-.72725.26337 5.42986-.39356 3.14351-1.61102 9.32176-2.06818 3.21732.19976-3.20044.80998-1.21674.77619 1.03436 1.18863 7.35968-1.2274 11.58624-1.04851l-.9859.21964c3.21036-.00298 7.60934-1.58717 12.76517-2.22423 0 0-.23355.15107-.00198.20175 3.4223-1.16677 10.04874-2.33354 14.97-3.22105-1.4664.73048-2.20908.59035-1.19559.97695 2.20706-.3886-.76849-.74339 3.63745-1.5176 1.4791.07553 4.70734-.13218 5.20975.36275l-4.17117.62314c2.24112.41444 5.40131-.79209 7.61929-.97993l-.23654.35381c6.38495-1.01073 6.36111-1.81476 13.24695-2.73505l-.74463-.13715c3.64691-1.31783 3.21359-.00596 6.88013-1.12205l1.24753.63507c2.45279-.54463 8.57785-2.00359 13.00443-2.78475-2.4364.94813-7.5972 1.98868-10.76828 2.79668 2.4595-.34387 8.34628-1.24529 9.5712-1.81973-.97992.21766-2.20038.58936-3.1962.60625 2.92737-1.05447 6.85181-1.92507 11.75244-2.60685-.21243.54462 1.08551.58041 3.05829.40648.98615-.08646 2.14124-.22659 3.36069-.38064.69495-.07851 1.42691-.16199 2.13477-.2425.0271.34387.05392.68178.07928 1.00577.00546.15405.01068.30511.0159.4522l.00024.20771.02609.4204c.06235 1.10416.05563 2.04036-.06436 2.68436 1.80157 8.58482 2.19864 17.22628 3.72418 27.30882.6907-3.75076.4527 2.94276 1.59686 2.14769.41217 2.3405.51953 3.24093.46957 3.46156l.27631 7.2312c-.11877 1.74022-.58936-2.19738-.83508-1.94196.63681 5.16202-.21542 2.23415-.0589 5.68776.3414-.76128.88553 1.70047 1.13397 4.65914l-.01862-4.2139c1.67761 7.10201-.15106 6.36656 1.52853 13.5272l-.71335-2.23914c.75732 3.68915 1.94199 13.73094 3.44989 17.23822-.04871.67879-.26215 1.5961-.58389-.02882 1.11484 8.91476 3.8653 19.64926 4.23776 26.6489l-.39706-.63208c.32275 1.6468.97623 2.80762.96826 4.92847-.13989-.08945-.39578-.62512-.30435.14511.22858.86365 1.15408 4.33315 1.29074 6.55737l-.60599-1.83165c.8378 8.7319 2.71667 13.19823 3.95648 20.44334-.88974.10733-.20822 6.97479.13193 10.40256l-.14236-.10037c1.32529 10.11731 3.17236 17.05533 4.84921 26.36168-.13791 5.94318 2.39044 19.72878 3.17633 29.13847-.04175-1.45001.72424.13419 1.04898 1.78.13095 2.21625 1.47537 5.96701.6127 5.73544l-.09564-.78314c-.28177.88254-.20996 2.44089-.00769 4.21887.1011.76028.20895 1.57028.31653 2.37924.0231.14212.04596.28326.06757.41544l.07504.06161c.34958.29022.64328.58835.88153.89447-.30981-.03876-.62958-.07751-.9588-.11829l-.39282-.04172c-.3205.01886-.64474.03876-.97247.05862-1.30988.09143-2.67242.23355-4.05908.41046-2.77335.35181-5.64279.83682-8.38135 1.3089-5.47656.94315-10.42865 1.83264-13.03574 1.49573-2.17999.58139-4.92896.96899-7.09009 1.54642l.03754-.58737c-6.16754.72751-9.24622 1.09125-16.82452 2.30673l1.49152-.62811c-4.29068.57245-5.17743 2.41403-9.12573 3.00934l-1.31036-.68277c-7.47446 1.07434-15.14816 1.40134-22.42609 3.22305.10336-.14114.28821-.4194 1.49399-.62512-3.52267.47702-13.69513 1.35657-12.25085 2.34445-.19553-.74936-7.7244 1.02069-11.71466 1.93005l.54861-.65097c-3.30627 1.20157-3.38702 1.41324-8.11774 2.28784-1.13867.08743-1.05222-.30911.46613-.37866-3.79996.2395-2.85281.94812-7.45184 1.29596l1.64682-.59927c-3.87302.50586-3.53833.65393-5.60779 1.37546-2.39938.56949-7.35516.89944-7.99844.47308-.47702.38364-2.53577 1.09821-4.83554 1.27509-.33467-.14807.47804-.38461.88727-.50186-6.51987.53568-9.52127 2.01749-14.04623 2.09799-.11902-.17294-.42189-.22461-.79855-.22858 5.13817-.71658 9.27927-1.27313 8.89787-1.17673-.07355-.51779-4.23576-.01889-1.03633-1.20355-3.27545.86368-8.84967 2.52039-12.92853 2.85135-.20337-.02185-.40152-.04373-.56029-.10336l.41034-.11728c-.94055.08151-1.76967.24847-2.54436.44724-1.30269.09839-2.13118.15106-3.37175.32001-.53928-.36075-4.79044.44427-6.86235.71756.25169.54166-2.46996.83585.13391.94217-.3343.00696.38152-.12225 1.75377-.34088.30872-.06161.67357-.12225.8737-.18387-.03851.01987-.08496.04373-.13417.06958 1.35672-.20276 3.12651-.46811 5.13705-.76825-1.59325.51978-3.26675 1.00378-5.59906 1.01471-1.01024.51483-2.12534 1.05548-2.75879 1.3248-2.94327-.38858-8.4612-.04074-9.29007-.4194-6.27177 1.21448-14.85161 2.3226-18.6722 3.95151-1.77724.3916-2.10857-.0119-2.80325-.08447 1.02179-.25342 2.25726-.41245 2.79654-.64499-3.55199.78314-10.62468 1.61697-11.37627 2.4826-4.57416.3071 2.44659-1.0455-3.75562-.04074l.80737-.34686c-12.40402.54962-19.62193 4.72275-33.40306 5.12427.95273-.03976 1.42865-.0636 1.63872.03378-15.56035 1.52356-31.77962 5.15707-47.19102 6.25824-4.36843.40051-4.77069.94217-7.36686 1.6796l-1.02602-.47507-4.42683 1.34467c-6.34507 1.42618-11.32658.08548-19.31447 2.2113l1.10639.26138c-2.9296.33691-9.20982 1.55438-8.78955 1.01373-.28796.11728-.89645.5625-2.06744.51083l-.13392-.30612-7.09144 1.56433c-5.58999.55853.68998-1.38742-7.4286-.29816-2.99731.55157-8.45276 2.1467-7.29058 2.19836 1.21907-.15701 3.13657-.24249 3.2731.06363l-2.73381.55753c-.36648 1.00876-2.35019 2.27094 4.5108 1.96484l4.63491-1.24332 1.58381.23953-3.96518.59232c2.3123.10834 3.68653-.47305 5.24749-.96005.41294.18784 1.09919.26337 2.04769.22064l4.50298-1.55438c.61308.28824-1.97303 1.02368 1.16292.78516 2.10993-.72452-2.19701-.52774 1.35486-1.31088 2.31689.10535 1.70779.5466 4.30359-.19382.40661.18884-.13255.42239-1.16689.67783 2.3164-.62415 6.22071-1.00876 7.36686-1.6796 2.42609.1918 7.93906-1.26715 7.83285-.34686.71072-.31705 4.05264-1.28702 6.21264-1.63089-3.80456 1.62494 8.11361-1.08826 7.22984.19977 2.79146-1.37152 10.51437-1.92609 15.62408-3.19324-.27914.11728-.827.35184-1.29125.36774 2.92985-.33493 3.81909-.16696 5.72006-.25345.26275-.84277 4.78237-1.66864 7.16325-2.50348 3.68517.25443-2.0411 1.23535-.81396 1.8078-.27082-.6142 6.12506-1.52158 4.83244-1.88135 2.80301.08249 2.39007-.10632 3.89226.34784.33952-1.05545 2.52374-.52872 4.70647-1.45795 4.02843-.07553 1.15088.78015 5.45732-.13815 2.11193.00891-1.70641.90833-1.70641.90833zm103.19781-16.39841.00148.01096c-.88899.14011-1.64691.25937-2.13068.33591.44352-.07255 1.05758-.17295 2.1292-.34687zm8.69189-1.24329c-1.05943.1441-2.37851.323-3.77386.51282-.33269-.15204-.03131-.40051.84476-.51382-.45642.19778 1.60879.01989 2.9291.001zm-18.94476-1.31485c1.36418-.2753 1.84097-.22958 2.04608-.14014-.64687.11032-1.40318.2395-2.39665.40945-.03902.02386-.1123.06857-.15256.09244.11579-.12621.25132-.24944.50313-.36175z"/><path d="m225.09032 306.2334c-.19691.03976-.3035.0795-.5614.12125.28821.00397.56165.00696.83893.01093.15852-.08447.3199-.17093.46201-.24646-.24946.03774-.50761.07848-.73954.11428z"/><path d="m13.83705 161.59544-.01317-.18486c-.00087.15504-.00323.29816-.02596.39555.01006-.12621.02783-.1282.03913-.21069z"/><path d="m366.59045 290.48892-.0328-.14111-.74188.23254z"/><path d="m18.69259 209.74814c-.03677.09839-.06286.28523-.05578.64897.0333-.03279.04659-.31107.05578-.64897z"/><path d="m21.50293 230.4469.21368 2.9537c-.0651-1.28205-.1415-2.2113-.21368-2.9537z"/><path d="m23.48031 246.38814c.12796.18684.21094.23355.28685.27629v-.0318z"/><path d="m129.92078 97.21827c.21231-.03976.42189-.07851.60985-.1133 1.42367-.31405.45156-.13218-.60985.1133z"/><path d="m54.87221 109.22688c.78377-.21567 1.55648-.42934 2.38075-.61121-1.34542.14708-2.38783.28323-2.38075.61121z"/><path d="m213.83752 84.60342s.00063.00497-.00732.01192c.17989-.02584.33852-.0487.5184-.07454z"/><path d="m60.75265 108.12868c-1.35535.07751-2.47131.26038-3.49969.48698 1.10366-.11827 2.40498-.24349 3.49969-.48698z"/><path d="m33.01176 315.34198.08497.76923c.03566-.01788.07255.02286.10398.07751z"/><path d="m33.20071 316.18872.18784.8418c-.05553-.3906-.10808-.72949-.18784-.8418z"/><path d="m33.78547 318.80054-.39692-1.77002c.08659.62015.1774 1.38739.39692 1.77002z"/><path d="m30.28366 294.25461-.23976-.2117c.06137.12524.13951.20077.23976.2117z"/><path d="m29.31566 287.86618c.16995 1.5325.10547 3.8909.53655 6.00183l.19169.1749c-.44761-.95706-.17591-4.7764-.72824-6.17673z"/><path d="m28.0628 260.80682.59705 5.38266c.08572-.96802.20498-2.24112.60376.18881-.30673-6.84954-.29145 1.46393-1.20081-5.57147z"/><path d="m26.01958 244.14107c.51083 2.86525.31306-.07852.45866.05565-.45916-1.79787-.57258-2.23317-.45866-.05565z"/><path d="m8.96287 124.03116.55668.21666c-.38909-2.20931-.20275.00696-.55668-.21666z"/><path d="m22.13353 113.34834-2.20571-.01391-.96117.61916z"/><path d="m36.21827 115.09353-.95906.21168 3.6766-.71258z"/><path d="m237.91512 86.26015-.76103-.53966c-1.48432.32698-1.69787 1.08528.76103.53966z"/><path d="m324.90793 73.24578c.99335.18287 3.47223.03876 4.93716-.48798-1.96383.23455-3.95175.26436-4.93716.48798z"/><path d="m388.96335 282.1178c.53693-.14908 1.23062-.32001 1.63837-.45023l-3.19247.63409z"/></g><path d="m36 1080q-24 58-24 137 0 79 6 129 6 51 16 92 24 92 59 92h881q58 0 78-172 5-48 5-99 0-120-26-179-86 267-223 342-31 18-61 18-30 0-47-16-17-15-28-49-18-60-18-144v-375l1-306v-290q0-98 25-145 26-46 52-70 27-24 63-45h-511q72 59 92 97 37 69 37 163v901q0 157-12 202-12 46-29 61-17 16-47 16-30 0-61-18-31-17-61-46-29-28-56-66-26-37-48-77-43-79-63-153zm1847-740q36-24 36-84 0-59-16-104-16-45-56-84-90-88-274-88-214 0-326 158-99 141-99 381 0 242 134 380 127 131 344 131 151 0 236-88 67-70 67-162 0-91-36-165-35-73-104-126-142-110-397-116 21-201 126-269 38-24 101-24 63 0 134 66 71 66 130 194zm-497 159v-31q316 21 316 306 0 107-64 144-22 12-58 12-36 0-73-22-36-22-63-72-58-109-58-337zm1075-499h-287q46 158 46 543 0 274-48 374-12 25-27 47l-33 46h347q-15-59-20-94l-7-60q116 174 295 174 180 0 233-195 79 135 209 179 46 16 103 16 58 0 104-25 47-24 79-69 63-91 63-249v-107q0-306 8-384 9-77 13-102 6-44 20-94h-295q44 151 44 543 0 159-16 213-16 55-42 79-25 25-69 25-129 0-205-152v-128q0-306 8-384 9-77 13-102 6-44 20-94h-295q45 154 45 543 0 163-16 215-16 53-41 77-25 25-69 25-43 0-78-17-35-17-63-45-53-52-83-134-2-29-2-60v-61q0-385 46-543zm478 602 4 18zm1082 344q112 84 280 84 238 0 311-197 24-65 24-164 0-98-23-192-22-93-62-168-40-75-95-132-54-57-118-95-128-77-272-81 2-54 6-106l10-106q9-108 62-183l34-46h-365q28 96 32 192 5 96 7 164 3 69 4 142 4 170 4 298 0 412-26 504-16 57-41 91l-42 59h269q-6-20 1-64zm365-303q0 287-145 287-72 0-120-64-52-69-52-189l-7-474v-55q0-27 1-55 145 22 235 174 88 150 88 376zm1945-273q27-37 27-107 0-70-6-112-6-41-19-75-30-76-79-76h-810q77 41 102 79 47 71 47 180-1 267-1 483v526q0 149-47 216-18 24-43 46h752q68-24 93-168 7-40 7-78 0-78-23-124l-54 108q-54 106-155 142-56 20-126 20-70 0-100-5-30-4-46-21-26-29-26-111 0-81 4-113 4-31 19-51 31-39 131-39h314q-23-58-47-82-48-48-130-48-32 0-61 7-54 13-95 13-41 0-68-8-26-7-41-23-26-28-26-101v-477q0-188 21-223 21-35 51-42 30-6 100-6 70 0 127 20 57 20 95 56 39 36 64 85 25 50 49 109zm507-370h-287q46 158 46 543 0 274-48 374-12 25-27 47l-33 46h347q-15-59-20-94l-7-60q116 174 295 174 180 0 233-195 79 135 209 179 46 16 103 16 58 0 104-25 47-24 79-69 63-91 63-249v-107q0-306 8-384 9-77 13-102 6-44 20-94h-295q44 151 44 543 0 159-16 213-16 55-42 79-25 25-69 25-129 0-205-152v-128q0-306 8-384 9-77 13-102 6-44 20-94h-295q45 154 45 543 0 163-16 215-16 53-41 77-25 25-69 25-43 0-78-17-35-17-63-45-53-52-83-134-2-29-2-60v-61q0-385 46-543zm478 602 4 18zm1607-68-3-192q0-179 33-244 20-39 47-60l47-38h-290l-31 116q-113-136-322-136-119 0-192 80-64 72-64 170 0 98 46 171 47 73 123 121 150 93 377 97v11q0 243-75 285-27 15-70 15-42 0-84-28-42-28-76-72-68-89-97-210-89 53-89 203 0 61 16 137 38 0 72 11l77 24q113 35 221 35 108 0 172-32 65-32 101-95 61-107 61-369zm-559-324q0-62 28-96 29-34 72-34 43 0 83 22 40 23 72 62 75 89 75 209v148q-140-13-231-93-99-86-99-218zm1148 1069q-20-33-49-56-29-22-66-22-37 0-66 22-29 23-49 56-41 68-41 144 0 92 84 123 30 11 73 11 119 0 148-84 9-24 9-54 0-29-11-68-11-39-32-72zm24-1279h-295q46 158 46 543 0 271-48 373-12 26-27 48l-33 46h355q-44-165-44-509 0-343 46-501zm533 720-1-262q0-324 39-458h-295q28 97 35 229 15 319 15 495 0 176-1 236-1 61-2 122-6 217-21 273-14 57-27 82-12 26-28 47l-33 46h365q-28-101-33-194-4-92-7-163-2-71-4-148-2-128-2-305z" transform="scale(.5 -.5)"/></g></svg>